<?xml version="1.0" encoding="UTF-8" standalone="no"?>
<!-- Created with Inkscape (http://www.inkscape.org/) -->

<svg
   xmlns:dc="http://purl.org/dc/elements/1.1/"
   xmlns:cc="http://creativecommons.org/ns#"
   xmlns:rdf="http://www.w3.org/1999/02/22-rdf-syntax-ns#"
   xmlns:svg="http://www.w3.org/2000/svg"
   xmlns="http://www.w3.org/2000/svg"
   version="1.1"
   width="128"
   height="128"
   id="svg3004"
   xml:space="preserve"><metadata
     id="metadata3010"><rdf:RDF><cc:Work
         rdf:about=""><dc:format>image/svg+xml</dc:format><dc:type
           rdf:resource="http://purl.org/dc/dcmitype/StillImage" /><dc:title></dc:title></cc:Work></rdf:RDF></metadata><defs
     id="defs3008" /><g
     transform="matrix(1.25,0,0,-1.25,0,128.00002)"
     id="g3012"><g
       transform="matrix(0.01285625,0,0,0.01285625,-0.09498493,14.343288)"
       id="g3014"><path
         d="m 4970,4.99219 c 0,0 -1200,459.99981 -2080,2049.99781 0,0 -900,920 -895,1970 0,0 -1740,695 -1995,2380 0,0 10,65 55,40 0,0 930,-985 2140,-1225 0,0 75,70 120,85 0,0 130,770 325,1030 0,0 150,235 385,70 0,0 320,-160 485,115 0,0 360,400 540,315 0,0 360,-185 760,-770 0,0 160,200 175,375 0,0 1780,-455 2980,-2060 0,0 -870,-950 -2860,-1060 0,0 -155,-985 435,-2190 0,0 -430,-10 -845,390 0,0 60,-764.998 310,-1429.9978 0,0 50,-115 -35,-85.00001"
         id="path3016"
         style="fill:#bfeafb;fill-opacity:1;fill-rule:nonzero;stroke:none" /><path
         d="m 7613.33,4488.32 c 0,0 -706.67,1106.66 -2500,1680 0,0 -93.34,-293.33 -300,-433.33 0,0 -506.67,1039.99 -940,933.33 l -126.66,-66.66 -213.33,-273.34 -193.34,-106.66 -326.66,40 -146.68,46.66 c 0,0 -120,0 -180,-133.33 0,0 -206.66,-553.33 -193.32,-953.33 l -160,-140 c 0,0 -1113.34,86.66 -2100.004,973.33 0,0 299.996,-1386.67 2186.664,-1986.67 l 1880,-433.33 666.67,-166.67 c 0,0 1819.99,126.66 2646.66,1020"
         id="path3018"
         style="fill:#a7a5a6;fill-opacity:1;fill-rule:nonzero;stroke:none" /><path
         d="m 580,5628.32 c 0,0 380.004,-866.67 1693.34,-1380 L 4380,3754.99 4946.67,3581.66 c 0,0 1386.66,6.66 2446.66,900 0,0 -986.67,933.33 -2140,1413.33 0,0 313.34,-226.67 373.34,-340 0,0 -246.66,199.99 -460,233.33 0,0 440,-340 293.33,-580 0,0 13.33,220 -266.67,406.67 0,0 -33.33,-726.67 -1246.66,-573.33 0,0 -1620.01,-573.34 -3366.67,586.66"
         id="path3020"
         style="fill:#4f4c4c;fill-opacity:1;fill-rule:nonzero;stroke:none" /><path
         d="m 4653.34,5624.99 c 0,0 -360.01,826.67 -703.34,860 0,0 -149.99,26.66 -226.66,-166.67 0,0 -143.34,-383.33 -536.67,-323.33 l 120,63.33 c 0,0 -163.34,-40 -366.67,103.34 0,0 -80,20 -143.33,-186.67 0,0 -136.67,-410 16.67,-660 l 623.33,50 683.33,-13.33 276.67,46.66 256.67,226.67"
         id="path3022"
         style="fill:#706d6e;fill-opacity:1;fill-rule:nonzero;stroke:none" /><path
         d="m 3436.67,5964.99 c 0,0 -93.33,-26.67 -163.33,-23.33 0,0 -70,-20 30,-46.67 0,0 216.66,-73.33 406.66,-3.33 0,0 66.68,3.33 63.34,-60 0,0 -56.68,-260 -713.34,-450 l 63.34,-20 710,0 280,-3.34 213.33,310 -336.67,606.67 -100,-26.67 c 0,0 -316.66,-266.66 -453.33,-283.33"
         id="path3024"
         style="fill:#4f4c4c;fill-opacity:1;fill-rule:nonzero;stroke:none" /><path
         d="m 5530,5764.99 c 0,0 695,-395 575,-830 0,0 -5,325 -390,585 0,0 390,-530 115,-785 0,0 90,250 -160,540 0,0 150,-550 -495,-565 0,0 415,225 115,680 0,0 85,-550 -845,-575 0,0 590,90 670,355 0,0 -340,-405 -1140,-235 0,0 -455,-15 -790,-90 l -175,-20 c 0,0 -1080,-200 -2230,610 0,0 590,-760 1590,-975 l 2685,-660 c 0,0 1555,-25 2145,795 0,0 -595,735 -1670,1170"
         id="path3026"
         style="fill:#393536;fill-opacity:1;fill-rule:nonzero;stroke:none" /><path
         d="m 3876.67,6171.66 c 0,0 276.67,-206.67 -270,-776.67 l 240,-60 350,30 103.33,516.67 -356.66,486.66 -66.67,-196.66"
         id="path3028"
         style="fill:#393536;fill-opacity:1;fill-rule:nonzero;stroke:none" /><path
         d="m 4226.67,5331.66 c 0,0 -1623.33,183.32 -1886.67,-260 0,0 809.99,-276.66 1803.33,186.66 l 83.34,73.34"
         id="path3030"
         style="fill:#8c3b25;fill-opacity:1;fill-rule:nonzero;stroke:none" /><path
         d="m 3973.33,5228.32 c 0,0 -1343.33,110 -1439.99,-180 l -216.68,40 c 0,0 193.35,413.34 1970.01,280 L 4180,5264.99 3973.33,5228.32"
         id="path3032"
         style="fill:#b9775d;fill-opacity:1;fill-rule:nonzero;stroke:none" /><path
         d="m 4943.33,4458.32 c 0,0 -526.66,433.34 -1689.99,366.67 0,0 -733.34,6.67 -1086.68,-266.67 l 23.34,-106.66 106.66,-200 -123.32,-123.34 26.66,-153.33 1333.34,-400 1159.99,220 390,506.67 -140,156.66"
         id="path3034"
         style="fill:#ffffff;fill-opacity:1;fill-rule:nonzero;stroke:none" /><path
         d="m 4870,4238.32 c 0,0 -823.32,873.34 -2683.33,286.67 l -6.67,46.67 c 0,0 426.66,286.66 1273.33,263.33 0,0 920.01,23.33 1456.67,-346.67 l 66.66,-90 c 0,0 -23.32,-116.66 -106.66,-160"
         id="path3036"
         style="fill:#bcc3c7;fill-opacity:1;fill-rule:nonzero;stroke:none" /><path
         d="m 4696.66,4108.32 c 0,0 -323.34,146.67 -360,526.67 l 136.67,-50 453.33,-303.33 c 0,0 -146.67,-153.34 -230,-173.34"
         id="path3038"
         style="fill:#bcc3c7;fill-opacity:1;fill-rule:nonzero;stroke:none" /><path
         d="m 4573.33,4054.99 c 0,0 -143.34,139.99 -196.67,276.67 0,0 -13.32,13.33 -6.66,-16.67 0,0 100,-246.67 70,-296.67 0,0 110,30 133.33,36.67"
         id="path3040"
         style="fill:#bcc3c7;fill-opacity:1;fill-rule:nonzero;stroke:none" /><path
         d="m 4136.66,4608.32 c 0,0 276.68,-236.66 123.34,-523.33 l -106.67,60 -140,453.33 c 0,0 79.99,16.68 123.33,10"
         id="path3042"
         style="fill:#bcc3c7;fill-opacity:1;fill-rule:nonzero;stroke:none" /><path
         d="m 3043.33,4591.66 c 0,0 -63.33,-166.67 3.33,-226.67 0,0 -106.66,3.33 -146.66,30 l -26.67,-56.67 c 0,0 170,-120 353.33,0 l -46.66,30 c 0,0 -126.67,46.66 -136.67,223.34"
         id="path3044"
         style="fill:#bcc3c7;fill-opacity:1;fill-rule:nonzero;stroke:none" /><path
         d="m 3620,4781.66 c 0,0 -56.67,-160 -273.34,-263.34 0,0 316.67,86.66 426.67,233.34 l -153.33,30"
         id="path3046"
         style="fill:#bcc3c7;fill-opacity:1;fill-rule:nonzero;stroke:none" /><path
         d="m 5126.67,4728.32 13.33,-136.66 -100,-83.34 -46.67,-100 -30,-56.66 c 0,0 -109.99,-353.34 -896.66,-390 l -360,63.33 -556.67,150 c 0,0 -216.67,90.01 -433.34,-6.67 l -320,-80 c 0,0 -106.66,-26.66 -120,103.34 l -110,-70 c 0,0 -63.32,-866.66 703.34,-1730 l 120,-166.67 c 0,0 680,-1353.338 1820,-1969.998 0,0 -313.33,943.338 -240,1646.668 0,0 306.67,-420.01 670,-516.67 0,0 -283.33,793.34 -283.33,1303.34 0,0 -60,943.33 90,1349.99 0,0 349.99,-393.33 686.66,210 l -40,-6.66 c 0,0 -260,-126.66 -383.33,50 0,0 133.34,260 -183.33,436.66"
         id="path3048"
         style="fill:#d91920;fill-opacity:1;fill-rule:nonzero;stroke:none" /><path
         d="m 3196.67,4124.99 c 0,0 -240.01,116.67 -426.67,-10 0,0 -216.66,-163.33 -356.66,-143.33 0,0 -66.67,0 -70,-53.34 0,0 -123.34,-476.67 650,-1430 L 2980,2391.65 c 0,0 -763.33,640 -803.33,1540.01 l -26.67,80 103.34,196.66 40,-73.33 c 0,0 23.33,-136.67 433.33,23.33 0,0 216.67,163.34 470,-33.33"
         id="path3050"
         style="fill:#f25846;fill-opacity:1;fill-rule:nonzero;stroke:none" /><path
         d="m 2963.34,4118.32 c 0,0 -466.67,-26.66 -26.67,-1303.33 l 23.33,-130 -23.33,-6.67 -173.33,330 -126.67,796.67 c 0,0 96.67,363.33 286.67,336.67 l 40,-23.34"
         id="path3052"
         style="fill:#f25846;fill-opacity:1;fill-rule:nonzero;stroke:none" /><path
         d="m 2920,3951.66 c 0,0 30,36.66 53.34,20 0,0 30,-10 33.33,-60 0,0 -10.01,-63.34 83.33,-186.67 0,0 316.66,-396.67 340,-676.67 l -53.33,46.67 -343.33,513.33 -120,253.34 6.66,90"
         id="path3054"
         style="fill:#f25846;fill-opacity:1;fill-rule:nonzero;stroke:none" /><path
         d="m 3276.67,2011.65 c 0,0 599.99,-1086.658 1453.33,-1633.33 l 16.67,-66.668 c 0,0 -800,443.328 -1233.33,1113.328 l -546.67,810 23.33,123.34 c 0,0 226.67,-253.34 286.67,-346.67"
         id="path3056"
         style="fill:#f25846;fill-opacity:1;fill-rule:nonzero;stroke:none" /><path
         d="m 2886.67,3138.31 c 0,0 10,10.01 20,-16.66 0,0 130,-766.68 580,-1233.34 0,0 -0.01,-40 -96.67,26.67 0,0 -420,443.33 -503.33,1223.33"
         id="path3058"
         style="fill:#f25846;fill-opacity:1;fill-rule:nonzero;stroke:none" /><path
         d="m 4553.34,3641.65 c 0,0 -303.34,-183.34 -233.34,-446.67 0,0 86.67,-270 -73.33,-290 0,0 -29.99,0.01 -13.33,-43.33 0,0 96.66,-363.34 86.66,-563.34 0,0 13.33,-36.66 20,3.34 0,0 63.34,103.33 16.67,433.33 0,0 -29.99,126.67 16.67,180 0,0 123.32,123.33 56.66,273.33 0,0 -60,193.34 116.67,410.01 0,0 43.34,53.33 6.67,43.33"
         id="path3060"
         style="fill:#f03f35;fill-opacity:1;fill-rule:nonzero;stroke:none" /><path
         d="m 4900,3061.65 c 0,0 -73.34,-606.68 200,-1593.34 l 83.34,-36.66 -160,720 -86.67,870 -36.67,40"
         id="path3062"
         style="fill:#f25846;fill-opacity:1;fill-rule:nonzero;stroke:none" /><path
         d="m 5022.5,4359.99 c 0,0 -157.5,-497.5 -1147.5,-437.5 l -97.5,22.5 0,27.5 c 0,0 327.5,-70 770,70 0,0 362.5,122.5 430,347.5 l 45,-30"
         id="path3064"
         style="fill:#f25846;fill-opacity:1;fill-rule:nonzero;stroke:none" /><path
         d="m 4945,4154.99 c 0,0 -320,-470 -1185,-205 0,0 -80,10 -5,-50 0,0 95,-135 -470,75 l 105,-70 c 0,0 1165,-470 1555,250"
         id="path3066"
         style="fill:#870e12;fill-opacity:1;fill-rule:nonzero;stroke:none" /><path
         d="m 4640,3819.99 c 0,0 -255,-315 -950,-40 l -80,-80 25,-200 c 0,0 460,-595 615,-1215 0,0 30,-55 35,5 0,0 -15,360 -150,640 0,0 -35,90 60,20 0,0 145,-60 55,265 0,0 -90,225 325,475 0,0 90,70 65,130"
         id="path3068"
         style="fill:#870e12;fill-opacity:1;fill-rule:nonzero;stroke:none" /><path
         d="m 3795,2769.99 c 0,0 330,-390 330,-910 0,0 -10,-135 35,-135 0,0 40,-15 55,100 0,0 55,255 130,335 0,0 -110,-745 65,-1219.998 l -340,224.998 c 0,0 -355,290 -730,1130 0,0 -420,850 -360,1325 l 85,-55 370,-600 420,-675 c 0,0 175,-225 75,40 l -170,355 35,85"
         id="path3070"
         style="fill:#870e12;fill-opacity:1;fill-rule:nonzero;stroke:none" /><path
         d="m 2595,3809.99 c 0,0 -195,10 -225,-65 0,0 -15,-35 40,-40 0,0 55,20 90,-50 0,0 220,-865 515,-1150 l -50,175 c 0,0 -350,685 -315,1105 l -55,25"
         id="path3072"
         style="fill:#870e12;fill-opacity:1;fill-rule:nonzero;stroke:none" /><path
         d="m 4855,3749.99 c 0,0 -205,-1000 135,-2045 0,0 -250,120 -415,470 l -5,555 85,640 200,380"
         id="path3074"
         style="fill:#870e12;fill-opacity:1;fill-rule:nonzero;stroke:none" /><path
         d="m 5185.01,4643.32 c 0,0 66.66,-123.32 -28.34,-160 0,0 -75,-13.32 -68.33,-105 l 26.67,-48.33 30,8.33 51.66,-10 38.34,-26.66 28.33,-30 38.33,13.33 c 0,0 116.68,233.33 -116.66,358.33"
         id="path3076"
         style="fill:#870e12;fill-opacity:1;fill-rule:nonzero;stroke:none" /><path
         d="m 5111.67,4289.99 c 0,0 80.01,31.67 158.34,-85 0,0 101.66,-151.67 301.66,-60 0,0 -119.99,-160.01 -251.66,-138.33 l -126.67,88.33 -90,30 8.33,165"
         id="path3078"
         style="fill:#870e12;fill-opacity:1;fill-rule:nonzero;stroke:none" /><path
         d="m 4197.5,2239.99 c 0,0 -472.5,1397.5 -1137.5,1752.5 0,0 -40,17.5 -10,-27.5 0,0 90,-122.5 90,-207.5 0,0 -7.5,-55 80,-85 0,0 187.5,-52.5 415,-502.5 0,0 50,-112.5 260,-335 0,0 145,-182.5 262.5,-550 0,0 10,-92.5 32.5,-95 0,0 22.5,2.5 7.5,50"
         id="path3080"
         style="fill:#870e12;fill-opacity:1;fill-rule:nonzero;stroke:none" /><path
         d="m 3272.5,3514.99 c 0,0 117.5,-80 215,-335 0,0 137.5,-442.5 377.5,-800 0,0 0,-17.5 -22.5,12.5 0,0 -277.5,410 -395,787.5 0,0 -42.5,192.5 -167.5,312.5 0,0 -30,27.5 -7.5,22.5"
         id="path3082"
         style="fill:#870e12;fill-opacity:1;fill-rule:nonzero;stroke:none" /><path
         d="m 2913.34,3978.32 c 0,0 -290.01,-110 260,-1430 0,0 -0.01,-23.33 -23.34,10 0,0 -456.66,906.67 -343.33,1346.67 0,0 43.33,123.34 106.67,73.33"
         id="path3084"
         style="fill:#870e12;fill-opacity:1;fill-rule:nonzero;stroke:none" /><path
         d="m 2867.5,2809.99 c 0,0 27.5,-272.5 122.5,-440 l 135,-127.5 -22.5,85 -125,317.5 -110,165"
         id="path3086"
         style="fill:#870e12;fill-opacity:1;fill-rule:nonzero;stroke:none" /><path
         d="m 3636.67,2574.99 c 0,0 -143.33,106.66 -193.33,183.33 0,0 -83.34,50 -130,120 0,0 -63.34,66.67 -50,-10 0,0 39.99,-413.33 396.66,-1093.33 l -10,-16.67 c 0,0 -336.66,489.99 -523.33,1053.33 0,0 -203.34,590 -126.67,810.01 l 253.34,-273.34 190,-400 193.33,-373.33"
         id="path3088"
         style="fill:#4b080a;fill-opacity:1;fill-rule:nonzero;stroke:none" /><path
         d="m 4483.34,3718.32 c 0,0 -166.66,-120 -510,-96.66 0,0 -123.34,13.33 -73.34,-36.67 0,0 136.68,-126.67 173.34,-286.67 l 33.33,-63.33 c 0,0 -253.33,120 -313.33,50 l -150,203.33 -33.34,206.67 96.67,80 c 0,0 443.34,-190.01 776.67,-56.67"
         id="path3090"
         style="fill:#4b080a;fill-opacity:1;fill-rule:nonzero;stroke:none" /><path
         d="m 4680,3091.65 c 0,0 13.33,-816.66 210,-1213.33 0,0 23.34,-49.99 -23.33,-13.33 0,0 -180.01,160 -286.67,393.33 l 0,600 c 0,0 40,263.33 100,233.33"
         id="path3092"
         style="fill:#4b080a;fill-opacity:1;fill-rule:nonzero;stroke:none" /><path
         d="m 5110,4258.32 c 0,0 83.33,36.66 153.33,-100 0,0 70.01,-136.66 183.34,-113.33 0,0 -123.34,-116.67 -243.34,56.67 l -123.33,40 30,116.66"
         id="path3094"
         style="fill:#4b080a;fill-opacity:1;fill-rule:nonzero;stroke:none" /><path
         d="m 4966.67,3514.99 c 0,0 1579.99,113.34 2553.33,980.01 0,0 -946.67,1126.66 -2340,1573.32 0,0 -493.34,-993.32 -2140,-1106.66 0,0 -1486.66,-66.67 -2666.664,926.66 0,0 359.996,-1086.66 1846.664,-1660 l -60,-126.66 c 0,0 -1780,700 -2026.664,2146.66 0,0 1271.664,-1318.33 3080.004,-1180 0,0 1433.33,113.34 1853.33,1186.67 0,0 1520,-346.67 2673.33,-1820 0,0 -940,-926.67 -2773.33,-1013.34 l 0,93.34"
         id="path3096"
         style="fill:#110b09;fill-opacity:1;fill-rule:nonzero;stroke:none" /><path
         d="m 4130,5301.66 c 0,0 -1613.34,103.33 -1683.34,-236.67 l -166.66,20 c 0,0 103.33,420 1590,320 0,0 270,40.01 170,583.33 0,0 -50,273.34 -223.33,140 0,0 -273.33,-193.34 -416.67,-186.66 0,0 -33.34,6.66 10,26.66 0,0 280,90 390,363.34 0,0 63.33,180 243.33,63.33 0,0 413.34,-286.67 576.67,-843.33 l -490,-250"
         id="path3098"
         style="fill:#110b09;fill-opacity:1;fill-rule:nonzero;stroke:none" /><path
         d="m 4013.33,5234.99 c 0,0 -516.66,80 -1089.99,-10 0,0 736.66,43.33 836.66,-70 l 253.33,80"
         id="path3100"
         style="fill:#110b09;fill-opacity:1;fill-rule:nonzero;stroke:none" /><path
         d="m 4746.67,5681.66 c 0,0 -296.67,633.32 -713.34,890 0,0 -236.66,130 -429.99,-236.67 0,0 -240,-456.67 -510,-346.67 0,0 199.99,33.34 223.32,133.34 0,0 -250,33.34 -370,106.66 0,0 -120,63.34 -166.66,-6.66 0,0 -226.66,-460 -240,-973.34 l -143.34,-96.66 c 0,0 83.34,673.33 293.34,1093.33 0,0 90,203.33 306.66,73.33 0,0 380.01,-153.34 533.34,83.34 0,0 210.01,303.34 416.67,366.66 0,0 40,6.66 60,-6.66 0,0 500,-333.34 850,-983.34 l -110,-96.66"
         id="path3102"
         style="fill:#110b09;fill-opacity:1;fill-rule:nonzero;stroke:none" /><path
         d="m 2863.34,5334.99 c 0,0 -163.34,270 -33.34,690 0,0 23.34,49.99 -10,26.67 0,0 -176.66,-310 -146.66,-763.34 l 190,46.67"
         id="path3104"
         style="fill:#110b09;fill-opacity:1;fill-rule:nonzero;stroke:none" /><path
         d="m 2310,4138.32 c 100,180 -90,360 -90,360 -40,23.34 -10,50 -10,50 373.33,243.34 1100,240 1100,240 1313.33,30 1543.34,-360 1543.34,-360 -6.66,-46.66 53.33,-60 53.33,-60 63.33,0 88.33,-8.33 88.33,-8.33 l -5,118.33 c -510,403.34 -1476.66,383.34 -1476.66,383.34 -873.34,30 -1290,-233.34 -1290,-233.34 -196.67,-106.66 -93.34,-183.33 -93.34,-183.33 133.33,-140 33.34,-263.33 33.34,-263.33 l 136.66,0 c 0,0 17.73,0.75 10,-43.34"
         id="path3106"
         style="fill:#110b09;fill-opacity:1;fill-rule:nonzero;stroke:none" /><path
         d="m 4520,3899.99 c 0,0 -295,-185 -1290,207.5 0,0 -275,132.5 -405,67.5 0,0 -487.5,-215 -555,-45 0,0 -2.5,25 45,40 l 2.5,-17.5 c 0,0 -35,-37.5 35,-50 0,0 175,-37.5 437.5,100 0,0 122.5,60 195,45 0,0 182.5,-30 370,-142.5 0,0 640,-307.5 1132.5,-205 0,0 45,10 32.5,0"
         id="path3108"
         style="fill:#110b09;fill-opacity:1;fill-rule:nonzero;stroke:none" /><path
         d="m 4965,4374.99 c 0,0 -182.5,-507.5 -1355,-380 l 160,-50 c 0,0 992.5,-82.5 1212.5,407.5 l -17.5,22.5"
         id="path3110"
         style="fill:#110b09;fill-opacity:1;fill-rule:nonzero;stroke:none" /><path
         d="m 2325,4522.49 c 0,0 -57.5,-25 -27.5,-55 0,0 177.5,-170 65,-375 0,0 187.5,-40 447.5,97.5 l 140,45 c 0,0 -45,85 -12.5,122.5 0,0 107.5,-42.5 180,10 0,0 17.5,-5 12.5,-20 0,0 -30,-120 85,-192.5 l 272.5,-127.5 212.5,-60 c 0,0 377.5,-15 495,2.5 0,0 245,222.5 42.5,517.5 0,0 110,-192.5 25,-365 0,0 45,290 -192.5,445 0,0 32.5,47.5 127.5,30 0,0 -150,125 -785,-150 0,0 -152.5,-75 -252.5,-47.5 0,0 -122.5,50 -110,200 0,0 -57.5,-102.5 42.5,-200 0,0 -192.5,-107.5 -340,172.5 0,0 -12.5,22.5 -17.5,2.5 0,0 7.5,-110 75,-162.5 0,0 -45,-7.5 -165,52.5 0,0 -205,100 -320,57.5"
         id="path3112"
         style="fill:#110b09;fill-opacity:1;fill-rule:nonzero;stroke:none" /><path
         d="m 2297.5,4622.49 c 0,0 175,45 307.5,-22.5 0,0 20,-7.5 7.5,10 0,0 -45,65 -187.5,67.5 l -127.5,-55"
         id="path3114"
         style="fill:#110b09;fill-opacity:1;fill-rule:nonzero;stroke:none" /><path
         d="m 3897.5,4787.49 c 0,0 -380,-270 -635,-300 0,0 -12.5,7.5 17.5,15 0,0 382.5,122.5 497.5,297.5 l 120,-12.5"
         id="path3116"
         style="fill:#110b09;fill-opacity:1;fill-rule:nonzero;stroke:none" /><path
         d="m 4317.5,4669.99 c 0,0 -17.5,-367.5 315,-597.5 l 95,47.5 c 0,0 -345,117.5 -387.5,530 0,0 -7.5,30 -22.5,20"
         id="path3118"
         style="fill:#110b09;fill-opacity:1;fill-rule:nonzero;stroke:none" /><path
         d="m 5035,4397.49 c 0,0 -5,67.5 97.5,100 0,0 97.5,17.5 20,162.5 0,0 247.5,-162.5 105,-375 0,0 -70,107.5 -160,42.5 l -2.5,-20 c 0,0 77.5,62.5 195,-75 0,0 147.5,-157.5 375,-30 0,0 -277.5,-397.5 -467.5,-205 0,0 -55,72.5 -125,55 l -57.5,-90 c 0,0 92.5,30 155,-37.5 0,0 142.5,-147.5 437.5,50 0,0 270,190 185,457.5 0,0 -97.5,-297.5 -425,-140 0,0 145,417.5 -467.5,572.5 l 17.5,-20 c 0,0 222.5,-67.5 187.5,-242.5 0,0 -52.5,-130 -202.5,-95 l 27.5,-85 105,-25"
         id="path3120"
         style="fill:#110b09;fill-opacity:1;fill-rule:nonzero;stroke:none" /><path
         d="m 5122.5,4179.99 c 82.5,177.5 -122.5,277.5 -122.5,277.5 l -45,-45 15,-55 c 0,0 127.5,-5 67.5,-140 0,0 -47.5,-30 -17.5,-52.5 0,0 -835,-1005 -565,-2885 0,0 -80,890 65,1370 0,0 -120,-1230 195,-2289.998 0,0 -990,615 -1710,1959.998 0,0 225,-335 420,-445 0,0 35,0 -30,55 0,0 -370,350 -510,1225 0,0 10,-430 200,-845 0,0 -785,765 -855,1670 0,0 -65,145 60,155 l 30,55 -30,35 -130,-10 -35,-35 c 0,0 -290,-585 845,-2070 0,0 845,-1439.998 1925,-1959.998 0,0 -430,1079.998 -255,2749.998 0,0 20,-695 255,-1040 0,0 -420,1325 5,1880 0,0 300,345 222.5,440"
         id="path3122"
         style="fill:#110b09;fill-opacity:1;fill-rule:nonzero;stroke:none" /><path
         d="m 4930,3884.99 c 0,0 -170,-1190 205,-2405 0,0 -380,155 -570,560 l -15,-130 c 0,0 200,-465 805,-655 0,0 -585,1250 -290,2745 l -135,-115"
         id="path3124"
         style="fill:#110b09;fill-opacity:1;fill-rule:nonzero;stroke:none" /><path
         d="m 4530,3748.32 c 0,0 -336.67,-226.67 -1183.34,193.34 0,0 -263.32,213.33 -436.66,213.33 0,0 -156.67,-9.99 -253.34,-216.67 0,0 -60,-120 -190,-123.33 0,0 -56.66,-16.67 -50,-43.33 0,0 170.01,63.32 186.68,-40 0,0 -3.34,-363.34 253.32,-823.34 0,0 23.34,-23.33 -3.32,36.67 0,0 -373.34,1079.99 46.66,1176.67 0,0 503.34,-43.33 1276.67,-1616.67 0,0 26.67,-33.34 20,3.33 0,0 -196.67,536.67 -483.34,923.33 0,0 -43.34,63.34 20,16.67 0,0 330.01,-96.66 453.34,-353.33 0,0 26.67,-26.67 20,3.33 0,0 -43.33,193.33 -396.67,440 0,0 -180.01,113.33 -126.67,160 0,0 43.34,53.33 196.67,0 0,0 376.66,-110 633.33,26.67 0,0 40,23.34 16.67,23.33"
         id="path3126"
         style="fill:#110b09;fill-opacity:1;fill-rule:nonzero;stroke:none" /><path
         d="m 4106.67,2068.32 c 0,0 -153.34,399.99 -283.34,573.33 0,0 -29.99,16.66 3.34,-40 0,0 109.99,-213.33 126.66,-313.33 0,0 -6.66,-13.33 -23.33,16.67 0,0 -350,626.67 -426.66,890 0,0 -76.68,206.67 -216.68,330 0,0 -33.33,50 -10,50 0,0 103.34,-56.68 276.68,-353.34 0,0 129.99,-193.34 176.66,-250 0,0 243.33,-293.32 373.33,-736.66 0,0 36.68,-130 3.34,-166.67"
         id="path3128"
         style="fill:#110b09;fill-opacity:1;fill-rule:nonzero;stroke:none" /><path
         d="m 3860,2299.99 c 0,0 -260,385 -425,765 0,0 -150,380 -360,615 0,0 -155,160 -135,255 0,0 -15,45 -30,5 0,0 -250,-310 500,-1865 0,0 505,-980 970,-1214.998 0,0 95,-120 130,-110 0,0 55,-15 -35,140 0,0 -190,539.998 -115,1284.998 0,0 -20,30 -25,-25 0,0 -95,-395 -30,-920 0,0 35,-165 -120,-50 0,0 -450,355 -815,1115 0,0 -365,790 -350,1155 0,0 -5,55 35,15 0,0 140,-125 220,-365 0,0 70,-180 155,-220 0,0 345,-565 410,-600 0,0 50,-50 20,20"
         id="path3130"
         style="fill:#110b09;fill-opacity:1;fill-rule:nonzero;stroke:none" /><path
         d="m 2285,4639.99 c 0,0 -560,-100 -1520,805 0,0 -30,15 -5,-25 0,0 525,-725 1450,-1035 l -45,170 120,85"
         id="path3132"
         style="fill:#110b09;fill-opacity:1;fill-rule:nonzero;stroke:none" /><path
         d="m 5580,4014.99 c 0,0 720,10 1170,260 0,0 365,215 190,445 0,0 -390,560 -1430,1045 l 50,-5 c 0,0 1005,-350 1810,-1245 l -45,-5 c 0,0 -750,-785 -2360,-875 l 20,355 100,15 c 0,0 255,-225 495,10"
         id="path3134"
         style="fill:#110b09;fill-opacity:1;fill-rule:nonzero;stroke:none" /><path
         d="m 5062.5,4094.99 c 0,0 70,47.5 175,-65 0,0 115,-100 257.5,40 0,0 -152.5,-115 -240,15 0,0 -55,122.5 -160,72.5 l -32.5,-62.5"
         id="path3136"
         style="fill:#110b09;fill-opacity:1;fill-rule:nonzero;stroke:none" /><path
         d="m 5185,4327.49 c 0,0 107.5,70 45,207.5 0,0 30,-142.5 -102.5,-205 l 57.5,-2.5"
         id="path3138"
         style="fill:#110b09;fill-opacity:1;fill-rule:nonzero;stroke:none" /><path
         d="m 3815,5152.49 c 0,0 -170,70 -647.5,47.5 0,0 472.5,-10 522.5,-77.5 l 125,30"
         id="path3140"
         style="fill:#110b09;fill-opacity:1;fill-rule:nonzero;stroke:none" /></g></g></svg>